<svg width="78" height="78" viewBox="0 0 78 78" fill="none" xmlns="http://www.w3.org/2000/svg">
<rect x="1" y="1" width="76" height="76" rx="13" fill="#FFDECC"/>
<rect x="1" y="1" width="76" height="76" rx="13" stroke="#262626" stroke-width="2"/>
<path fill-rule="evenodd" clip-rule="evenodd" d="M51.1822 24.125C50.6504 24.125 50.1305 24.2824 49.688 24.5774L42.4928 29.3742C40.5584 30.6638 38.8087 32.197 37.2838 33.9303C40.2801 35.303 42.6978 37.7207 44.0705 40.717C45.8038 39.1921 47.337 37.4424 48.6266 35.508L53.4234 28.3128C53.7184 27.8703 53.8758 27.3504 53.8758 26.8186C53.8758 25.331 52.6698 24.125 51.1822 24.125ZM39.4251 43.9936C40.4825 43.4062 41.4954 42.7489 42.4577 42.0276C41.2654 39.0851 38.9157 36.7353 35.9732 35.5431C35.2519 36.5054 34.5946 37.5183 34.0072 38.5757L33.6126 39.2859C36.0726 39.9895 38.0113 41.9282 38.7149 44.3882L39.4251 43.9936ZM31.5633 41.125C28.6292 41.125 26.2508 43.5035 26.2508 46.4375C26.2508 47.6111 25.2994 48.5625 24.1258 48.5625C24.0777 48.5625 24.0298 48.5609 23.9822 48.5577C23.591 48.5319 23.2173 48.7236 23.0101 49.0564C22.8029 49.3893 22.7958 49.8092 22.9917 50.1488C24.2749 52.3736 26.6806 53.875 29.4383 53.875C33.5459 53.875 36.8758 50.5451 36.8758 46.4375C36.8758 43.5035 34.4973 41.125 31.5633 41.125Z" fill="#262626"/>
</svg>
