<svg width="78" height="78" viewBox="0 0 78 78" fill="none" xmlns="http://www.w3.org/2000/svg">
<rect x="1" y="1" width="76" height="76" rx="13" fill="#FFDECC"/>
<rect x="1" y="1" width="76" height="76" rx="13" stroke="#262626" stroke-width="2"/>
<path d="M37.9375 28.4216C35.7906 27.0473 33.2377 26.25 30.5 26.25C28.8875 26.25 27.3374 26.5268 25.8959 27.0362C25.4714 27.1863 25.1875 27.5877 25.1875 28.038V48.2255C25.1875 48.5704 25.3549 48.8939 25.6365 49.093C25.9181 49.2921 26.2789 49.3422 26.6041 49.2273C27.8212 48.7971 29.1321 48.5625 30.5 48.5625C33.3263 48.5625 35.9163 49.5644 37.9375 51.2339V28.4216Z" fill="#262626"/>
<path d="M40.0625 51.2339C42.0837 49.5644 44.6737 48.5625 47.5 48.5625C48.8679 48.5625 50.1788 48.7971 51.3959 49.2273C51.7211 49.3422 52.0819 49.2921 52.3635 49.093C52.6451 48.8939 52.8125 48.5704 52.8125 48.2255V28.038C52.8125 27.5877 52.5286 27.1863 52.1041 27.0362C50.6626 26.5268 49.1125 26.25 47.5 26.25C44.7623 26.25 42.2094 27.0473 40.0625 28.4216V51.2339Z" fill="#262626"/>
</svg>
