<svg width="507" height="578" viewBox="0 0 507 578" fill="none" xmlns="http://www.w3.org/2000/svg">
<g filter="url(#filter0_d_3_2)">
<rect width="498.667" height="570" rx="12" fill="white"/>
<rect x="1" y="1" width="496.667" height="568" rx="11" stroke="#262626" stroke-width="2"/>
<path d="M188 1H311V372C311 378.075 306.075 383 300 383H199C192.925 383 188 378.075 188 372V1Z" fill="#FFEFE6" stroke="#262626" stroke-width="2"/>
<path d="M153.884 432V412.12H157.748V428.612H167.884V432H153.884ZM168.863 427.66C168.863 426.708 169.125 425.877 169.647 425.168C170.189 424.44 170.935 423.88 171.887 423.488C172.839 423.096 173.931 422.9 175.163 422.9C175.779 422.9 176.405 422.947 177.039 423.04C177.674 423.133 178.225 423.283 178.691 423.488V422.704C178.691 421.771 178.411 421.052 177.851 420.548C177.31 420.044 176.498 419.792 175.415 419.792C174.613 419.792 173.847 419.932 173.119 420.212C172.391 420.492 171.626 420.903 170.823 421.444L169.619 418.98C170.59 418.345 171.579 417.869 172.587 417.552C173.614 417.235 174.687 417.076 175.807 417.076C177.898 417.076 179.522 417.599 180.679 418.644C181.855 419.689 182.443 421.183 182.443 423.124V427.8C182.443 428.192 182.509 428.472 182.639 428.64C182.789 428.808 183.022 428.911 183.339 428.948V432C183.003 432.056 182.695 432.103 182.415 432.14C182.154 432.177 181.93 432.196 181.743 432.196C180.997 432.196 180.427 432.028 180.035 431.692C179.662 431.356 179.429 430.945 179.335 430.46L179.251 429.704C178.617 430.525 177.823 431.16 176.871 431.608C175.919 432.056 174.949 432.28 173.959 432.28C172.989 432.28 172.111 432.084 171.327 431.692C170.562 431.281 169.955 430.731 169.507 430.04C169.078 429.331 168.863 428.537 168.863 427.66ZM177.991 428.416C178.197 428.192 178.365 427.968 178.495 427.744C178.626 427.52 178.691 427.315 178.691 427.128V425.644C178.243 425.457 177.758 425.317 177.235 425.224C176.713 425.112 176.218 425.056 175.751 425.056C174.781 425.056 173.978 425.271 173.343 425.7C172.727 426.111 172.419 426.661 172.419 427.352C172.419 427.725 172.522 428.08 172.727 428.416C172.933 428.752 173.231 429.023 173.623 429.228C174.015 429.433 174.482 429.536 175.023 429.536C175.583 429.536 176.134 429.433 176.675 429.228C177.217 429.004 177.655 428.733 177.991 428.416ZM199.586 432H195.834V423.768C195.834 422.592 195.628 421.733 195.218 421.192C194.807 420.651 194.238 420.38 193.51 420.38C193.006 420.38 192.492 420.511 191.97 420.772C191.466 421.033 191.008 421.397 190.598 421.864C190.187 422.312 189.888 422.835 189.702 423.432V432H185.95V417.328H189.338V420.044C189.711 419.409 190.187 418.877 190.766 418.448C191.344 418 192.007 417.664 192.754 417.44C193.519 417.197 194.322 417.076 195.162 417.076C196.076 417.076 196.823 417.244 197.402 417.58C197.999 417.897 198.447 418.336 198.746 418.896C199.063 419.437 199.278 420.053 199.39 420.744C199.52 421.435 199.586 422.135 199.586 422.844V432ZM208.588 432.084C207.617 432.084 206.721 431.897 205.9 431.524C205.097 431.132 204.397 430.591 203.8 429.9C203.221 429.209 202.773 428.416 202.456 427.52C202.139 426.624 201.98 425.672 201.98 424.664C201.98 423.6 202.148 422.611 202.484 421.696C202.82 420.781 203.287 419.979 203.884 419.288C204.5 418.579 205.219 418.037 206.04 417.664C206.88 417.272 207.804 417.076 208.812 417.076C209.951 417.076 210.949 417.337 211.808 417.86C212.667 418.364 213.376 419.045 213.936 419.904V417.328H217.212V431.3C217.212 432.756 216.857 433.997 216.148 435.024C215.457 436.069 214.496 436.863 213.264 437.404C212.032 437.964 210.632 438.244 209.064 438.244C207.477 438.244 206.133 437.973 205.032 437.432C203.931 436.909 202.988 436.163 202.204 435.192L204.248 433.204C204.808 433.895 205.508 434.436 206.348 434.828C207.207 435.22 208.112 435.416 209.064 435.416C209.867 435.416 210.595 435.267 211.248 434.968C211.92 434.688 212.452 434.24 212.844 433.624C213.255 433.027 213.46 432.252 213.46 431.3V429.452C212.975 430.292 212.284 430.945 211.388 431.412C210.511 431.86 209.577 432.084 208.588 432.084ZM209.848 429.088C210.259 429.088 210.651 429.023 211.024 428.892C211.397 428.761 211.743 428.584 212.06 428.36C212.377 428.136 212.657 427.875 212.9 427.576C213.143 427.259 213.329 426.941 213.46 426.624V423.124C213.236 422.545 212.919 422.041 212.508 421.612C212.116 421.183 211.668 420.856 211.164 420.632C210.679 420.389 210.165 420.268 209.624 420.268C209.045 420.268 208.523 420.389 208.056 420.632C207.589 420.875 207.188 421.22 206.852 421.668C206.516 422.097 206.255 422.583 206.068 423.124C205.9 423.647 205.816 424.197 205.816 424.776C205.816 425.373 205.919 425.933 206.124 426.456C206.329 426.979 206.609 427.436 206.964 427.828C207.337 428.22 207.767 428.528 208.252 428.752C208.756 428.976 209.288 429.088 209.848 429.088ZM220.454 426.512V417.328H224.206V425.7C224.206 426.82 224.411 427.669 224.822 428.248C225.233 428.808 225.839 429.088 226.642 429.088C227.127 429.088 227.603 428.995 228.07 428.808C228.555 428.603 228.994 428.304 229.386 427.912C229.797 427.52 230.142 427.025 230.422 426.428V417.328H234.174V427.8C234.174 428.192 234.239 428.472 234.37 428.64C234.519 428.808 234.753 428.911 235.07 428.948V432C234.697 432.056 234.379 432.093 234.118 432.112C233.875 432.149 233.651 432.168 233.446 432.168C232.774 432.168 232.223 432.019 231.794 431.72C231.383 431.403 231.141 430.973 231.066 430.432L230.982 429.256C230.329 430.245 229.489 431.001 228.462 431.524C227.435 432.028 226.306 432.28 225.074 432.28C223.562 432.28 222.414 431.795 221.63 430.824C220.846 429.835 220.454 428.397 220.454 426.512ZM236.895 427.66C236.895 426.708 237.156 425.877 237.679 425.168C238.22 424.44 238.967 423.88 239.919 423.488C240.871 423.096 241.963 422.9 243.195 422.9C243.811 422.9 244.436 422.947 245.071 423.04C245.705 423.133 246.256 423.283 246.723 423.488V422.704C246.723 421.771 246.443 421.052 245.883 420.548C245.341 420.044 244.529 419.792 243.447 419.792C242.644 419.792 241.879 419.932 241.151 420.212C240.423 420.492 239.657 420.903 238.855 421.444L237.651 418.98C238.621 418.345 239.611 417.869 240.619 417.552C241.645 417.235 242.719 417.076 243.839 417.076C245.929 417.076 247.553 417.599 248.711 418.644C249.887 419.689 250.475 421.183 250.475 423.124V427.8C250.475 428.192 250.54 428.472 250.671 428.64C250.82 428.808 251.053 428.911 251.371 428.948V432C251.035 432.056 250.727 432.103 250.447 432.14C250.185 432.177 249.961 432.196 249.775 432.196C249.028 432.196 248.459 432.028 248.067 431.692C247.693 431.356 247.46 430.945 247.367 430.46L247.283 429.704C246.648 430.525 245.855 431.16 244.903 431.608C243.951 432.056 242.98 432.28 241.991 432.28C241.02 432.28 240.143 432.084 239.359 431.692C238.593 431.281 237.987 430.731 237.539 430.04C237.109 429.331 236.895 428.537 236.895 427.66ZM246.023 428.416C246.228 428.192 246.396 427.968 246.527 427.744C246.657 427.52 246.723 427.315 246.723 427.128V425.644C246.275 425.457 245.789 425.317 245.267 425.224C244.744 425.112 244.249 425.056 243.783 425.056C242.812 425.056 242.009 425.271 241.375 425.7C240.759 426.111 240.451 426.661 240.451 427.352C240.451 427.725 240.553 428.08 240.759 428.416C240.964 428.752 241.263 429.023 241.655 429.228C242.047 429.433 242.513 429.536 243.055 429.536C243.615 429.536 244.165 429.433 244.707 429.228C245.248 429.004 245.687 428.733 246.023 428.416ZM259.721 432.084C258.75 432.084 257.854 431.897 257.033 431.524C256.23 431.132 255.53 430.591 254.933 429.9C254.354 429.209 253.906 428.416 253.589 427.52C253.271 426.624 253.113 425.672 253.113 424.664C253.113 423.6 253.281 422.611 253.617 421.696C253.953 420.781 254.419 419.979 255.017 419.288C255.633 418.579 256.351 418.037 257.173 417.664C258.013 417.272 258.937 417.076 259.945 417.076C261.083 417.076 262.082 417.337 262.941 417.86C263.799 418.364 264.509 419.045 265.069 419.904V417.328H268.345V431.3C268.345 432.756 267.99 433.997 267.281 435.024C266.59 436.069 265.629 436.863 264.397 437.404C263.165 437.964 261.765 438.244 260.197 438.244C258.61 438.244 257.266 437.973 256.165 437.432C255.063 436.909 254.121 436.163 253.337 435.192L255.381 433.204C255.941 433.895 256.641 434.436 257.481 434.828C258.339 435.22 259.245 435.416 260.197 435.416C260.999 435.416 261.727 435.267 262.381 434.968C263.053 434.688 263.585 434.24 263.977 433.624C264.387 433.027 264.593 432.252 264.593 431.3V429.452C264.107 430.292 263.417 430.945 262.521 431.412C261.643 431.86 260.71 432.084 259.721 432.084ZM260.981 429.088C261.391 429.088 261.783 429.023 262.157 428.892C262.53 428.761 262.875 428.584 263.193 428.36C263.51 428.136 263.79 427.875 264.033 427.576C264.275 427.259 264.462 426.941 264.593 426.624V423.124C264.369 422.545 264.051 422.041 263.641 421.612C263.249 421.183 262.801 420.856 262.297 420.632C261.811 420.389 261.298 420.268 260.757 420.268C260.178 420.268 259.655 420.389 259.189 420.632C258.722 420.875 258.321 421.22 257.985 421.668C257.649 422.097 257.387 422.583 257.201 423.124C257.033 423.647 256.949 424.197 256.949 424.776C256.949 425.373 257.051 425.933 257.257 426.456C257.462 426.979 257.742 427.436 258.097 427.828C258.47 428.22 258.899 428.528 259.385 428.752C259.889 428.976 260.421 429.088 260.981 429.088ZM278.531 432.28C277.355 432.28 276.291 432.084 275.339 431.692C274.387 431.281 273.575 430.731 272.903 430.04C272.231 429.331 271.708 428.528 271.335 427.632C270.98 426.717 270.803 425.756 270.803 424.748C270.803 423.348 271.111 422.069 271.727 420.912C272.362 419.755 273.258 418.831 274.415 418.14C275.591 417.431 276.972 417.076 278.559 417.076C280.164 417.076 281.536 417.431 282.675 418.14C283.814 418.831 284.682 419.755 285.279 420.912C285.895 422.051 286.203 423.283 286.203 424.608C286.203 424.832 286.194 425.065 286.175 425.308C286.156 425.532 286.138 425.719 286.119 425.868H274.779C274.854 426.615 275.068 427.268 275.423 427.828C275.796 428.388 276.263 428.817 276.823 429.116C277.402 429.396 278.018 429.536 278.671 429.536C279.418 429.536 280.118 429.359 280.771 429.004C281.443 428.631 281.9 428.145 282.143 427.548L285.363 428.444C285.008 429.191 284.495 429.853 283.823 430.432C283.17 431.011 282.395 431.468 281.499 431.804C280.603 432.121 279.614 432.28 278.531 432.28ZM274.695 423.488H282.367C282.292 422.741 282.078 422.097 281.723 421.556C281.387 420.996 280.939 420.567 280.379 420.268C279.819 419.951 279.194 419.792 278.503 419.792C277.831 419.792 277.215 419.951 276.655 420.268C276.114 420.567 275.666 420.996 275.311 421.556C274.975 422.097 274.77 422.741 274.695 423.488ZM300.108 412.12H304.028L311.336 432H307.36L305.512 427.044H298.568L296.748 432H292.772L300.108 412.12ZM304.812 424.328L302.068 416.124L299.212 424.328H304.812ZM321.889 420.576C320.75 420.576 319.733 420.8 318.837 421.248C317.941 421.677 317.297 422.303 316.905 423.124V432H313.153V417.328H316.597V420.464C317.119 419.456 317.782 418.663 318.585 418.084C319.387 417.505 320.237 417.188 321.133 417.132C321.338 417.132 321.497 417.132 321.609 417.132C321.721 417.132 321.814 417.141 321.889 417.16V420.576ZM332.773 431.244C332.455 431.375 332.073 431.524 331.625 431.692C331.177 431.86 330.691 431.991 330.169 432.084C329.665 432.196 329.151 432.252 328.629 432.252C327.938 432.252 327.303 432.131 326.725 431.888C326.146 431.645 325.679 431.263 325.325 430.74C324.989 430.199 324.821 429.499 324.821 428.64V420.212H322.889V417.328H324.821V412.568H328.573V417.328H331.653V420.212H328.573V427.38C328.591 427.884 328.731 428.248 328.993 428.472C329.254 428.696 329.581 428.808 329.973 428.808C330.365 428.808 330.747 428.743 331.121 428.612C331.494 428.481 331.793 428.369 332.017 428.276L332.773 431.244ZM340.131 432.28C338.88 432.28 337.686 432.075 336.547 431.664C335.408 431.253 334.428 430.647 333.607 429.844L334.951 427.408C335.828 428.117 336.687 428.64 337.527 428.976C338.386 429.312 339.207 429.48 339.991 429.48C340.719 429.48 341.298 429.349 341.727 429.088C342.175 428.827 342.399 428.435 342.399 427.912C342.399 427.557 342.278 427.287 342.035 427.1C341.792 426.895 341.438 426.717 340.971 426.568C340.523 426.419 339.972 426.251 339.319 426.064C338.236 425.709 337.331 425.364 336.603 425.028C335.875 424.692 335.324 424.272 334.951 423.768C334.596 423.245 334.419 422.583 334.419 421.78C334.419 420.809 334.662 419.979 335.147 419.288C335.651 418.579 336.342 418.028 337.219 417.636C338.115 417.244 339.16 417.048 340.355 417.048C341.4 417.048 342.39 417.216 343.323 417.552C344.256 417.869 345.106 418.392 345.871 419.12L344.359 421.5C343.612 420.921 342.903 420.501 342.231 420.24C341.559 419.96 340.878 419.82 340.187 419.82C339.795 419.82 339.422 419.867 339.067 419.96C338.731 420.053 338.451 420.212 338.227 420.436C338.022 420.641 337.919 420.94 337.919 421.332C337.919 421.687 338.012 421.967 338.199 422.172C338.404 422.359 338.703 422.527 339.095 422.676C339.506 422.825 340 422.993 340.579 423.18C341.755 423.516 342.744 423.861 343.547 424.216C344.368 424.571 344.984 425.009 345.395 425.532C345.806 426.036 346.011 426.736 346.011 427.632C346.011 429.088 345.479 430.227 344.415 431.048C343.351 431.869 341.923 432.28 340.131 432.28Z" fill="white"/>
<path d="M103.234 476.06V474.16H106.774C107.481 474.16 108.027 473.98 108.414 473.62C108.814 473.247 109.014 472.733 109.014 472.08C109.014 471.493 108.821 471 108.434 470.6C108.047 470.2 107.501 470 106.794 470H103.234V468H106.894C107.774 468 108.547 468.18 109.214 468.54C109.881 468.887 110.394 469.367 110.754 469.98C111.127 470.58 111.314 471.267 111.314 472.04C111.314 472.853 111.127 473.56 110.754 474.16C110.394 474.76 109.881 475.227 109.214 475.56C108.547 475.893 107.774 476.06 106.894 476.06H103.234ZM101.654 482V468H103.954V482H101.654ZM109.334 482L104.434 475.92L106.574 475.14L112.234 482H109.334ZM117.806 482.2C116.846 482.2 115.98 481.987 115.206 481.56C114.446 481.12 113.84 480.52 113.386 479.76C112.946 479 112.726 478.147 112.726 477.2C112.726 476.253 112.946 475.407 113.386 474.66C113.826 473.9 114.42 473.3 115.166 472.86C115.926 472.42 116.766 472.2 117.686 472.2C118.58 472.2 119.366 472.407 120.046 472.82C120.74 473.233 121.28 473.8 121.666 474.52C122.066 475.24 122.266 476.06 122.266 476.98C122.266 477.14 122.253 477.307 122.226 477.48C122.213 477.64 122.186 477.82 122.146 478.02H114.266V476.22H121.006L120.186 476.94C120.16 476.353 120.046 475.86 119.846 475.46C119.646 475.06 119.36 474.753 118.986 474.54C118.626 474.327 118.18 474.22 117.646 474.22C117.086 474.22 116.6 474.34 116.186 474.58C115.773 474.82 115.453 475.16 115.226 475.6C115 476.027 114.886 476.54 114.886 477.14C114.886 477.74 115.006 478.267 115.246 478.72C115.486 479.173 115.826 479.527 116.266 479.78C116.706 480.02 117.213 480.14 117.786 480.14C118.28 480.14 118.733 480.053 119.146 479.88C119.573 479.707 119.933 479.453 120.226 479.12L121.626 480.54C121.16 481.087 120.593 481.5 119.926 481.78C119.26 482.06 118.553 482.2 117.806 482.2ZM128.05 482.2C127.183 482.2 126.397 481.98 125.69 481.54C124.997 481.1 124.443 480.507 124.03 479.76C123.63 479 123.43 478.153 123.43 477.22C123.43 476.273 123.63 475.427 124.03 474.68C124.443 473.92 124.997 473.32 125.69 472.88C126.397 472.427 127.183 472.2 128.05 472.2C128.783 472.2 129.43 472.36 129.99 472.68C130.563 472.987 131.017 473.413 131.35 473.96C131.683 474.507 131.85 475.127 131.85 475.82V478.58C131.85 479.273 131.683 479.893 131.35 480.44C131.03 480.987 130.583 481.42 130.01 481.74C129.437 482.047 128.783 482.2 128.05 482.2ZM128.41 480.12C129.223 480.12 129.877 479.847 130.37 479.3C130.877 478.753 131.13 478.053 131.13 477.2C131.13 476.627 131.017 476.12 130.79 475.68C130.563 475.24 130.243 474.9 129.83 474.66C129.43 474.407 128.957 474.28 128.41 474.28C127.877 474.28 127.403 474.407 126.99 474.66C126.59 474.9 126.27 475.24 126.03 475.68C125.803 476.12 125.69 476.627 125.69 477.2C125.69 477.773 125.803 478.28 126.03 478.72C126.27 479.16 126.59 479.507 126.99 479.76C127.403 480 127.877 480.12 128.41 480.12ZM130.99 482V479.42L131.37 477.08L130.99 474.76V472.4H133.19V482H130.99ZM139.651 482.2C138.785 482.2 137.998 481.98 137.291 481.54C136.598 481.1 136.045 480.507 135.631 479.76C135.231 479 135.031 478.153 135.031 477.22C135.031 476.273 135.231 475.427 135.631 474.68C136.045 473.92 136.598 473.32 137.291 472.88C137.998 472.427 138.785 472.2 139.651 472.2C140.385 472.2 141.031 472.36 141.591 472.68C142.165 472.987 142.618 473.413 142.951 473.96C143.285 474.507 143.451 475.127 143.451 475.82V478.58C143.451 479.273 143.285 479.893 142.951 480.44C142.631 480.987 142.185 481.42 141.611 481.74C141.038 482.047 140.385 482.2 139.651 482.2ZM140.011 480.12C140.558 480.12 141.031 480 141.431 479.76C141.845 479.507 142.165 479.16 142.391 478.72C142.618 478.28 142.731 477.773 142.731 477.2C142.731 476.627 142.618 476.12 142.391 475.68C142.165 475.24 141.845 474.9 141.431 474.66C141.031 474.407 140.558 474.28 140.011 474.28C139.478 474.28 139.005 474.407 138.591 474.66C138.191 474.9 137.871 475.24 137.631 475.68C137.405 476.12 137.291 476.627 137.291 477.2C137.291 477.773 137.405 478.28 137.631 478.72C137.871 479.16 138.191 479.507 138.591 479.76C139.005 480 139.478 480.12 140.011 480.12ZM144.791 482H142.591V479.42L142.971 477.08L142.591 474.76V467.6H144.791V482ZM147.253 482V472.4H149.453V482H147.253ZM148.353 470.64C147.98 470.64 147.666 470.513 147.413 470.26C147.173 470.007 147.053 469.693 147.053 469.32C147.053 468.947 147.173 468.633 147.413 468.38C147.666 468.127 147.98 468 148.353 468C148.74 468 149.053 468.127 149.293 468.38C149.533 468.633 149.653 468.947 149.653 469.32C149.653 469.693 149.533 470.007 149.293 470.26C149.053 470.513 148.74 470.64 148.353 470.64ZM158.501 482V476.46C158.501 475.82 158.294 475.293 157.881 474.88C157.481 474.467 156.961 474.26 156.321 474.26C155.894 474.26 155.514 474.353 155.181 474.54C154.847 474.727 154.587 474.987 154.401 475.32C154.214 475.653 154.121 476.033 154.121 476.46L153.261 475.98C153.261 475.247 153.421 474.6 153.741 474.04C154.061 473.467 154.501 473.02 155.061 472.7C155.634 472.367 156.274 472.2 156.981 472.2C157.701 472.2 158.341 472.387 158.901 472.76C159.461 473.12 159.901 473.593 160.221 474.18C160.541 474.753 160.701 475.353 160.701 475.98V482H158.501ZM151.921 482V472.4H154.121V482H151.921ZM166.936 486.2C165.923 486.2 165.036 486.013 164.276 485.64C163.516 485.28 162.903 484.767 162.436 484.1L163.876 482.66C164.263 483.14 164.703 483.5 165.196 483.74C165.689 483.98 166.283 484.1 166.976 484.1C167.843 484.1 168.529 483.873 169.036 483.42C169.543 482.98 169.796 482.373 169.796 481.6V479.24L170.176 477.12L169.796 474.98V472.4H171.996V481.6C171.996 482.52 171.783 483.32 171.356 484C170.929 484.693 170.336 485.233 169.576 485.62C168.816 486.007 167.936 486.2 166.936 486.2ZM166.836 481.8C165.983 481.8 165.209 481.593 164.516 481.18C163.836 480.753 163.296 480.173 162.896 479.44C162.509 478.707 162.316 477.887 162.316 476.98C162.316 476.073 162.509 475.26 162.896 474.54C163.296 473.82 163.836 473.253 164.516 472.84C165.209 472.413 165.983 472.2 166.836 472.2C167.596 472.2 168.263 472.353 168.836 472.66C169.409 472.967 169.856 473.393 170.176 473.94C170.496 474.473 170.656 475.1 170.656 475.82V478.18C170.656 478.887 170.489 479.513 170.156 480.06C169.836 480.607 169.389 481.033 168.816 481.34C168.243 481.647 167.583 481.8 166.836 481.8ZM167.276 479.72C167.809 479.72 168.276 479.607 168.676 479.38C169.076 479.153 169.383 478.84 169.596 478.44C169.823 478.027 169.936 477.547 169.936 477C169.936 476.453 169.823 475.98 169.596 475.58C169.383 475.167 169.076 474.847 168.676 474.62C168.276 474.393 167.809 474.28 167.276 474.28C166.743 474.28 166.269 474.393 165.856 474.62C165.456 474.847 165.143 475.167 164.916 475.58C164.689 475.98 164.576 476.453 164.576 477C164.576 477.533 164.689 478.007 164.916 478.42C165.143 478.833 165.456 479.153 165.856 479.38C166.269 479.607 166.743 479.72 167.276 479.72ZM174.44 484.34L175.8 481.8L176.54 481.6C176.46 481.76 176.367 481.893 176.26 482C176.153 482.107 176.027 482.16 175.88 482.16C175.573 482.16 175.287 482.033 175.02 481.78C174.767 481.513 174.64 481.18 174.64 480.78C174.64 480.353 174.78 479.993 175.06 479.7C175.353 479.393 175.713 479.24 176.14 479.24C176.54 479.24 176.887 479.393 177.18 479.7C177.487 479.993 177.64 480.353 177.64 480.78C177.64 480.953 177.6 481.16 177.52 481.4C177.453 481.627 177.327 481.92 177.14 482.28L175.66 485L174.44 484.34ZM186.771 482L182.911 472.4H185.191L187.791 479.38L187.111 479.4L189.651 472.4H190.931L193.471 479.4L192.791 479.38L195.391 472.4H197.671L193.811 482H192.531L189.931 475.36H190.651L188.051 482H186.771ZM199.049 482V472.4H201.249V482H199.049ZM201.249 476.66L200.489 476.28C200.489 475.067 200.756 474.087 201.289 473.34C201.836 472.58 202.656 472.2 203.749 472.2C204.229 472.2 204.663 472.287 205.049 472.46C205.436 472.633 205.796 472.913 206.129 473.3L204.689 474.78C204.516 474.593 204.323 474.46 204.109 474.38C203.896 474.3 203.649 474.26 203.369 474.26C202.756 474.26 202.249 474.453 201.849 474.84C201.449 475.227 201.249 475.833 201.249 476.66ZM207.214 482V472.4H209.414V482H207.214ZM208.314 470.64C207.941 470.64 207.627 470.513 207.374 470.26C207.134 470.007 207.014 469.693 207.014 469.32C207.014 468.947 207.134 468.633 207.374 468.38C207.627 468.127 207.941 468 208.314 468C208.701 468 209.014 468.127 209.254 468.38C209.494 468.633 209.614 468.947 209.614 469.32C209.614 469.693 209.494 470.007 209.254 470.26C209.014 470.513 208.701 470.64 208.314 470.64ZM213.341 482V468.4H215.541V482H213.341ZM211.041 474.4V472.4H217.841V474.4H211.041ZM219.46 482V472.4H221.66V482H219.46ZM220.56 470.64C220.187 470.64 219.873 470.513 219.62 470.26C219.38 470.007 219.26 469.693 219.26 469.32C219.26 468.947 219.38 468.633 219.62 468.38C219.873 468.127 220.187 468 220.56 468C220.947 468 221.26 468.127 221.5 468.38C221.74 468.633 221.86 468.947 221.86 469.32C221.86 469.693 221.74 470.007 221.5 470.26C221.26 470.513 220.947 470.64 220.56 470.64ZM230.708 482V476.46C230.708 475.82 230.501 475.293 230.088 474.88C229.688 474.467 229.168 474.26 228.528 474.26C228.101 474.26 227.721 474.353 227.388 474.54C227.054 474.727 226.794 474.987 226.608 475.32C226.421 475.653 226.328 476.033 226.328 476.46L225.468 475.98C225.468 475.247 225.628 474.6 225.948 474.04C226.268 473.467 226.708 473.02 227.268 472.7C227.841 472.367 228.481 472.2 229.188 472.2C229.908 472.2 230.548 472.387 231.108 472.76C231.668 473.12 232.108 473.593 232.428 474.18C232.748 474.753 232.908 475.353 232.908 475.98V482H230.708ZM224.128 482V472.4H226.328V482H224.128ZM239.143 486.2C238.13 486.2 237.243 486.013 236.483 485.64C235.723 485.28 235.11 484.767 234.643 484.1L236.083 482.66C236.47 483.14 236.91 483.5 237.403 483.74C237.897 483.98 238.49 484.1 239.183 484.1C240.05 484.1 240.737 483.873 241.243 483.42C241.75 482.98 242.003 482.373 242.003 481.6V479.24L242.383 477.12L242.003 474.98V472.4H244.203V481.6C244.203 482.52 243.99 483.32 243.563 484C243.137 484.693 242.543 485.233 241.783 485.62C241.023 486.007 240.143 486.2 239.143 486.2ZM239.043 481.8C238.19 481.8 237.417 481.593 236.723 481.18C236.043 480.753 235.503 480.173 235.103 479.44C234.717 478.707 234.523 477.887 234.523 476.98C234.523 476.073 234.717 475.26 235.103 474.54C235.503 473.82 236.043 473.253 236.723 472.84C237.417 472.413 238.19 472.2 239.043 472.2C239.803 472.2 240.47 472.353 241.043 472.66C241.617 472.967 242.063 473.393 242.383 473.94C242.703 474.473 242.863 475.1 242.863 475.82V478.18C242.863 478.887 242.697 479.513 242.363 480.06C242.043 480.607 241.597 481.033 241.023 481.34C240.45 481.647 239.79 481.8 239.043 481.8ZM239.483 479.72C240.017 479.72 240.483 479.607 240.883 479.38C241.283 479.153 241.59 478.84 241.803 478.44C242.03 478.027 242.143 477.547 242.143 477C242.143 476.453 242.03 475.98 241.803 475.58C241.59 475.167 241.283 474.847 240.883 474.62C240.483 474.393 240.017 474.28 239.483 474.28C238.95 474.28 238.477 474.393 238.063 474.62C237.663 474.847 237.35 475.167 237.123 475.58C236.897 475.98 236.783 476.453 236.783 477C236.783 477.533 236.897 478.007 237.123 478.42C237.35 478.833 237.663 479.153 238.063 479.38C238.477 479.607 238.95 479.72 239.483 479.72ZM246.647 484.34L248.007 481.8L248.747 481.6C248.667 481.76 248.574 481.893 248.467 482C248.36 482.107 248.234 482.16 248.087 482.16C247.78 482.16 247.494 482.033 247.227 481.78C246.974 481.513 246.847 481.18 246.847 480.78C246.847 480.353 246.987 479.993 247.267 479.7C247.56 479.393 247.92 479.24 248.347 479.24C248.747 479.24 249.094 479.393 249.387 479.7C249.694 479.993 249.847 480.353 249.847 480.78C249.847 480.953 249.807 481.16 249.727 481.4C249.66 481.627 249.534 481.92 249.347 482.28L247.867 485L246.647 484.34ZM259.318 482.2C258.785 482.2 258.272 482.133 257.778 482C257.285 481.853 256.832 481.653 256.418 481.4C256.005 481.133 255.645 480.813 255.338 480.44L256.738 479.04C257.072 479.427 257.452 479.72 257.878 479.92C258.318 480.107 258.812 480.2 259.358 480.2C259.852 480.2 260.225 480.127 260.478 479.98C260.732 479.833 260.858 479.62 260.858 479.34C260.858 479.047 260.738 478.82 260.498 478.66C260.258 478.5 259.945 478.367 259.558 478.26C259.185 478.14 258.785 478.02 258.358 477.9C257.945 477.78 257.545 477.62 257.158 477.42C256.785 477.207 256.478 476.92 256.238 476.56C255.998 476.2 255.878 475.733 255.878 475.16C255.878 474.547 256.018 474.02 256.298 473.58C256.592 473.14 256.998 472.8 257.518 472.56C258.052 472.32 258.685 472.2 259.418 472.2C260.192 472.2 260.872 472.34 261.458 472.62C262.058 472.887 262.558 473.293 262.958 473.84L261.558 475.24C261.278 474.893 260.958 474.633 260.598 474.46C260.238 474.287 259.825 474.2 259.358 474.2C258.918 474.2 258.578 474.267 258.338 474.4C258.098 474.533 257.978 474.727 257.978 474.98C257.978 475.247 258.098 475.453 258.338 475.6C258.578 475.747 258.885 475.873 259.258 475.98C259.645 476.087 260.045 476.207 260.458 476.34C260.885 476.46 261.285 476.633 261.658 476.86C262.045 477.073 262.358 477.367 262.598 477.74C262.838 478.1 262.958 478.573 262.958 479.16C262.958 480.093 262.632 480.833 261.978 481.38C261.325 481.927 260.438 482.2 259.318 482.2ZM266.232 482V468.4H268.432V482H266.232ZM263.932 474.4V472.4H270.732V474.4H263.932ZM276.457 482.2C275.524 482.2 274.677 481.98 273.917 481.54C273.157 481.087 272.551 480.48 272.097 479.72C271.657 478.96 271.437 478.113 271.437 477.18C271.437 476.247 271.657 475.407 272.097 474.66C272.551 473.913 273.157 473.32 273.917 472.88C274.677 472.427 275.524 472.2 276.457 472.2C277.404 472.2 278.257 472.42 279.017 472.86C279.777 473.3 280.377 473.9 280.817 474.66C281.271 475.407 281.497 476.247 281.497 477.18C281.497 478.113 281.271 478.96 280.817 479.72C280.377 480.48 279.777 481.087 279.017 481.54C278.257 481.98 277.404 482.2 276.457 482.2ZM276.457 480.08C277.004 480.08 277.484 479.96 277.897 479.72C278.324 479.467 278.651 479.12 278.877 478.68C279.117 478.24 279.237 477.74 279.237 477.18C279.237 476.62 279.117 476.127 278.877 475.7C278.637 475.273 278.311 474.94 277.897 474.7C277.484 474.447 277.004 474.32 276.457 474.32C275.924 474.32 275.444 474.447 275.017 474.7C274.604 474.94 274.277 475.273 274.037 475.7C273.811 476.127 273.697 476.62 273.697 477.18C273.697 477.74 273.811 478.24 274.037 478.68C274.277 479.12 274.604 479.467 275.017 479.72C275.444 479.96 275.924 480.08 276.457 480.08ZM283.327 482V472.4H285.527V482H283.327ZM285.527 476.66L284.767 476.28C284.767 475.067 285.033 474.087 285.567 473.34C286.113 472.58 286.933 472.2 288.027 472.2C288.507 472.2 288.94 472.287 289.327 472.46C289.713 472.633 290.073 472.913 290.407 473.3L288.967 474.78C288.793 474.593 288.6 474.46 288.387 474.38C288.173 474.3 287.927 474.26 287.647 474.26C287.033 474.26 286.527 474.453 286.127 474.84C285.727 475.227 285.527 475.833 285.527 476.66ZM294.435 482.1L290.335 472.4H292.755L295.555 479.52H294.855L297.815 472.4H300.255L295.795 482.1H294.435ZM291.575 486L294.555 479.86L295.795 482.1L294.015 486H291.575ZM302.99 482V468.4H305.19V482H302.99ZM300.69 474.4V472.4H307.49V474.4H300.69ZM313.275 482.2C312.315 482.2 311.448 481.987 310.675 481.56C309.915 481.12 309.308 480.52 308.855 479.76C308.415 479 308.195 478.147 308.195 477.2C308.195 476.253 308.415 475.407 308.855 474.66C309.295 473.9 309.888 473.3 310.635 472.86C311.395 472.42 312.235 472.2 313.155 472.2C314.048 472.2 314.835 472.407 315.515 472.82C316.208 473.233 316.748 473.8 317.135 474.52C317.535 475.24 317.735 476.06 317.735 476.98C317.735 477.14 317.722 477.307 317.695 477.48C317.682 477.64 317.655 477.82 317.615 478.02H309.735V476.22H316.475L315.655 476.94C315.628 476.353 315.515 475.86 315.315 475.46C315.115 475.06 314.828 474.753 314.455 474.54C314.095 474.327 313.648 474.22 313.115 474.22C312.555 474.22 312.068 474.34 311.655 474.58C311.242 474.82 310.922 475.16 310.695 475.6C310.468 476.027 310.355 476.54 310.355 477.14C310.355 477.74 310.475 478.267 310.715 478.72C310.955 479.173 311.295 479.527 311.735 479.78C312.175 480.02 312.682 480.14 313.255 480.14C313.748 480.14 314.202 480.053 314.615 479.88C315.042 479.707 315.402 479.453 315.695 479.12L317.095 480.54C316.628 481.087 316.062 481.5 315.395 481.78C314.728 482.06 314.022 482.2 313.275 482.2ZM319.499 482V467.6H321.699V482H319.499ZM324.147 482V467.6H326.347V482H324.147ZM328.816 482V472.4H331.016V482H328.816ZM329.916 470.64C329.542 470.64 329.229 470.513 328.976 470.26C328.736 470.007 328.616 469.693 328.616 469.32C328.616 468.947 328.736 468.633 328.976 468.38C329.229 468.127 329.542 468 329.916 468C330.302 468 330.616 468.127 330.856 468.38C331.096 468.633 331.216 468.947 331.216 469.32C331.216 469.693 331.096 470.007 330.856 470.26C330.616 470.513 330.302 470.64 329.916 470.64ZM340.063 482V476.46C340.063 475.82 339.856 475.293 339.443 474.88C339.043 474.467 338.523 474.26 337.883 474.26C337.456 474.26 337.076 474.353 336.743 474.54C336.41 474.727 336.15 474.987 335.963 475.32C335.776 475.653 335.683 476.033 335.683 476.46L334.823 475.98C334.823 475.247 334.983 474.6 335.303 474.04C335.623 473.467 336.063 473.02 336.623 472.7C337.196 472.367 337.836 472.2 338.543 472.2C339.263 472.2 339.903 472.387 340.463 472.76C341.023 473.12 341.463 473.593 341.783 474.18C342.103 474.753 342.263 475.353 342.263 475.98V482H340.063ZM333.483 482V472.4H335.683V482H333.483ZM348.499 486.2C347.485 486.2 346.599 486.013 345.839 485.64C345.079 485.28 344.465 484.767 343.999 484.1L345.439 482.66C345.825 483.14 346.265 483.5 346.759 483.74C347.252 483.98 347.845 484.1 348.539 484.1C349.405 484.1 350.092 483.873 350.599 483.42C351.105 482.98 351.359 482.373 351.359 481.6V479.24L351.739 477.12L351.359 474.98V472.4H353.559V481.6C353.559 482.52 353.345 483.32 352.919 484C352.492 484.693 351.899 485.233 351.139 485.62C350.379 486.007 349.499 486.2 348.499 486.2ZM348.399 481.8C347.545 481.8 346.772 481.593 346.079 481.18C345.399 480.753 344.859 480.173 344.459 479.44C344.072 478.707 343.879 477.887 343.879 476.98C343.879 476.073 344.072 475.26 344.459 474.54C344.859 473.82 345.399 473.253 346.079 472.84C346.772 472.413 347.545 472.2 348.399 472.2C349.159 472.2 349.825 472.353 350.399 472.66C350.972 472.967 351.419 473.393 351.739 473.94C352.059 474.473 352.219 475.1 352.219 475.82V478.18C352.219 478.887 352.052 479.513 351.719 480.06C351.399 480.607 350.952 481.033 350.379 481.34C349.805 481.647 349.145 481.8 348.399 481.8ZM348.839 479.72C349.372 479.72 349.839 479.607 350.239 479.38C350.639 479.153 350.945 478.84 351.159 478.44C351.385 478.027 351.499 477.547 351.499 477C351.499 476.453 351.385 475.98 351.159 475.58C350.945 475.167 350.639 474.847 350.239 474.62C349.839 474.393 349.372 474.28 348.839 474.28C348.305 474.28 347.832 474.393 347.419 474.62C347.019 474.847 346.705 475.167 346.479 475.58C346.252 475.98 346.139 476.453 346.139 477C346.139 477.533 346.252 478.007 346.479 478.42C346.705 478.833 347.019 479.153 347.419 479.38C347.832 479.607 348.305 479.72 348.839 479.72ZM356.003 484.34L357.363 481.8L358.103 481.6C358.023 481.76 357.929 481.893 357.823 482C357.716 482.107 357.589 482.16 357.443 482.16C357.136 482.16 356.849 482.033 356.583 481.78C356.329 481.513 356.203 481.18 356.203 480.78C356.203 480.353 356.343 479.993 356.623 479.7C356.916 479.393 357.276 479.24 357.703 479.24C358.103 479.24 358.449 479.393 358.743 479.7C359.049 479.993 359.203 480.353 359.203 480.78C359.203 480.953 359.163 481.16 359.083 481.4C359.016 481.627 358.889 481.92 358.703 482.28L357.223 485L356.003 484.34ZM369.554 482.2C368.687 482.2 367.9 481.98 367.194 481.54C366.5 481.1 365.947 480.507 365.534 479.76C365.134 479 364.934 478.153 364.934 477.22C364.934 476.273 365.134 475.427 365.534 474.68C365.947 473.92 366.5 473.32 367.194 472.88C367.9 472.427 368.687 472.2 369.554 472.2C370.287 472.2 370.934 472.36 371.494 472.68C372.067 472.987 372.52 473.413 372.854 473.96C373.187 474.507 373.354 475.127 373.354 475.82V478.58C373.354 479.273 373.187 479.893 372.854 480.44C372.534 480.987 372.087 481.42 371.514 481.74C370.94 482.047 370.287 482.2 369.554 482.2ZM369.914 480.12C370.727 480.12 371.38 479.847 371.874 479.3C372.38 478.753 372.634 478.053 372.634 477.2C372.634 476.627 372.52 476.12 372.294 475.68C372.067 475.24 371.747 474.9 371.334 474.66C370.934 474.407 370.46 474.28 369.914 474.28C369.38 474.28 368.907 474.407 368.494 474.66C368.094 474.9 367.774 475.24 367.534 475.68C367.307 476.12 367.194 476.627 367.194 477.2C367.194 477.773 367.307 478.28 367.534 478.72C367.774 479.16 368.094 479.507 368.494 479.76C368.907 480 369.38 480.12 369.914 480.12ZM372.494 482V479.42L372.874 477.08L372.494 474.76V472.4H374.694V482H372.494ZM383.715 482V476.46C383.715 475.82 383.509 475.293 383.095 474.88C382.695 474.467 382.175 474.26 381.535 474.26C381.109 474.26 380.729 474.353 380.395 474.54C380.062 474.727 379.802 474.987 379.615 475.32C379.429 475.653 379.335 476.033 379.335 476.46L378.475 475.98C378.475 475.247 378.635 474.6 378.955 474.04C379.275 473.467 379.715 473.02 380.275 472.7C380.849 472.367 381.489 472.2 382.195 472.2C382.915 472.2 383.555 472.387 384.115 472.76C384.675 473.12 385.115 473.593 385.435 474.18C385.755 474.753 385.915 475.353 385.915 475.98V482H383.715ZM377.135 482V472.4H379.335V482H377.135ZM392.171 482.2C391.304 482.2 390.518 481.98 389.811 481.54C389.118 481.1 388.564 480.507 388.151 479.76C387.751 479 387.551 478.153 387.551 477.22C387.551 476.273 387.751 475.427 388.151 474.68C388.564 473.92 389.118 473.32 389.811 472.88C390.518 472.427 391.304 472.2 392.171 472.2C392.904 472.2 393.551 472.36 394.111 472.68C394.684 472.987 395.138 473.413 395.471 473.96C395.804 474.507 395.971 475.127 395.971 475.82V478.58C395.971 479.273 395.804 479.893 395.471 480.44C395.151 480.987 394.704 481.42 394.131 481.74C393.558 482.047 392.904 482.2 392.171 482.2ZM392.531 480.12C393.078 480.12 393.551 480 393.951 479.76C394.364 479.507 394.684 479.16 394.911 478.72C395.138 478.28 395.251 477.773 395.251 477.2C395.251 476.627 395.138 476.12 394.911 475.68C394.684 475.24 394.364 474.9 393.951 474.66C393.551 474.407 393.078 474.28 392.531 474.28C391.998 474.28 391.524 474.407 391.111 474.66C390.711 474.9 390.391 475.24 390.151 475.68C389.924 476.12 389.811 476.627 389.811 477.2C389.811 477.773 389.924 478.28 390.151 478.72C390.391 479.16 390.711 479.507 391.111 479.76C391.524 480 391.998 480.12 392.531 480.12ZM397.311 482H395.111V479.42L395.491 477.08L395.111 474.76V467.6H397.311V482ZM161.057 512.2C160.111 512.2 159.251 511.98 158.477 511.54C157.717 511.1 157.117 510.5 156.677 509.74C156.237 508.98 156.017 508.133 156.017 507.2C156.017 506.253 156.237 505.407 156.677 504.66C157.117 503.9 157.717 503.3 158.477 502.86C159.251 502.42 160.111 502.2 161.057 502.2C161.804 502.2 162.497 502.347 163.137 502.64C163.791 502.92 164.344 503.327 164.797 503.86L163.357 505.32C163.077 504.987 162.737 504.74 162.337 504.58C161.951 504.407 161.524 504.32 161.057 504.32C160.511 504.32 160.024 504.447 159.597 504.7C159.184 504.94 158.857 505.273 158.617 505.7C158.391 506.127 158.277 506.627 158.277 507.2C158.277 507.76 158.391 508.26 158.617 508.7C158.857 509.127 159.184 509.467 159.597 509.72C160.024 509.96 160.511 510.08 161.057 510.08C161.524 510.08 161.951 510 162.337 509.84C162.737 509.667 163.077 509.413 163.357 509.08L164.797 510.54C164.344 511.073 163.791 511.487 163.137 511.78C162.497 512.06 161.804 512.2 161.057 512.2ZM170.588 512.2C169.655 512.2 168.808 511.98 168.048 511.54C167.288 511.087 166.681 510.48 166.228 509.72C165.788 508.96 165.568 508.113 165.568 507.18C165.568 506.247 165.788 505.407 166.228 504.66C166.681 503.913 167.288 503.32 168.048 502.88C168.808 502.427 169.655 502.2 170.588 502.2C171.535 502.2 172.388 502.42 173.148 502.86C173.908 503.3 174.508 503.9 174.948 504.66C175.401 505.407 175.628 506.247 175.628 507.18C175.628 508.113 175.401 508.96 174.948 509.72C174.508 510.48 173.908 511.087 173.148 511.54C172.388 511.98 171.535 512.2 170.588 512.2ZM170.588 510.08C171.135 510.08 171.615 509.96 172.028 509.72C172.455 509.467 172.781 509.12 173.008 508.68C173.248 508.24 173.368 507.74 173.368 507.18C173.368 506.62 173.248 506.127 173.008 505.7C172.768 505.273 172.441 504.94 172.028 504.7C171.615 504.447 171.135 504.32 170.588 504.32C170.055 504.32 169.575 504.447 169.148 504.7C168.735 504.94 168.408 505.273 168.168 505.7C167.941 506.127 167.828 506.62 167.828 507.18C167.828 507.74 167.941 508.24 168.168 508.68C168.408 509.12 168.735 509.467 169.148 509.72C169.575 509.96 170.055 510.08 170.588 510.08ZM177.458 512V502.4H179.658V512H177.458ZM183.838 512V506.28C183.838 505.64 183.638 505.147 183.238 504.8C182.838 504.44 182.344 504.26 181.758 504.26C181.358 504.26 180.998 504.34 180.678 504.5C180.371 504.66 180.124 504.893 179.938 505.2C179.751 505.493 179.658 505.853 179.658 506.28L178.798 505.8C178.798 505.067 178.958 504.433 179.278 503.9C179.598 503.367 180.031 502.953 180.578 502.66C181.124 502.353 181.738 502.2 182.418 502.2C183.098 502.2 183.711 502.347 184.258 502.64C184.804 502.933 185.238 503.347 185.558 503.88C185.878 504.413 186.038 505.053 186.038 505.8V512H183.838ZM190.218 512V506.28C190.218 505.64 190.018 505.147 189.618 504.8C189.218 504.44 188.724 504.26 188.138 504.26C187.751 504.26 187.398 504.34 187.078 504.5C186.758 504.66 186.504 504.893 186.318 505.2C186.131 505.493 186.038 505.853 186.038 506.28L184.798 505.8C184.864 505.067 185.078 504.433 185.438 503.9C185.798 503.367 186.258 502.953 186.818 502.66C187.391 502.353 188.018 502.2 188.698 502.2C189.391 502.2 190.018 502.347 190.578 502.64C191.138 502.933 191.584 503.347 191.918 503.88C192.251 504.413 192.418 505.053 192.418 505.8V512H190.218ZM194.684 512V502.4H196.884V512H194.684ZM201.064 512V506.28C201.064 505.64 200.864 505.147 200.464 504.8C200.064 504.44 199.571 504.26 198.984 504.26C198.584 504.26 198.224 504.34 197.904 504.5C197.598 504.66 197.351 504.893 197.164 505.2C196.978 505.493 196.884 505.853 196.884 506.28L196.024 505.8C196.024 505.067 196.184 504.433 196.504 503.9C196.824 503.367 197.258 502.953 197.804 502.66C198.351 502.353 198.964 502.2 199.644 502.2C200.324 502.2 200.938 502.347 201.484 502.64C202.031 502.933 202.464 503.347 202.784 503.88C203.104 504.413 203.264 505.053 203.264 505.8V512H201.064ZM207.444 512V506.28C207.444 505.64 207.244 505.147 206.844 504.8C206.444 504.44 205.951 504.26 205.364 504.26C204.978 504.26 204.624 504.34 204.304 504.5C203.984 504.66 203.731 504.893 203.544 505.2C203.358 505.493 203.264 505.853 203.264 506.28L202.024 505.8C202.091 505.067 202.304 504.433 202.664 503.9C203.024 503.367 203.484 502.953 204.044 502.66C204.618 502.353 205.244 502.2 205.924 502.2C206.618 502.2 207.244 502.347 207.804 502.64C208.364 502.933 208.811 503.347 209.144 503.88C209.478 504.413 209.644 505.053 209.644 505.8V512H207.444ZM215.851 512.2C215.037 512.2 214.311 512.02 213.671 511.66C213.044 511.3 212.551 510.807 212.191 510.18C211.844 509.54 211.671 508.807 211.671 507.98V502.4H213.871V507.88C213.871 508.347 213.944 508.747 214.091 509.08C214.251 509.4 214.477 509.647 214.771 509.82C215.077 509.993 215.437 510.08 215.851 510.08C216.491 510.08 216.977 509.893 217.311 509.52C217.657 509.133 217.831 508.587 217.831 507.88V502.4H220.031V507.98C220.031 508.82 219.851 509.56 219.491 510.2C219.144 510.827 218.657 511.32 218.031 511.68C217.404 512.027 216.677 512.2 215.851 512.2ZM228.823 512V506.46C228.823 505.82 228.616 505.293 228.203 504.88C227.803 504.467 227.283 504.26 226.643 504.26C226.216 504.26 225.836 504.353 225.503 504.54C225.169 504.727 224.909 504.987 224.723 505.32C224.536 505.653 224.443 506.033 224.443 506.46L223.583 505.98C223.583 505.247 223.743 504.6 224.063 504.04C224.383 503.467 224.823 503.02 225.383 502.7C225.956 502.367 226.596 502.2 227.303 502.2C228.023 502.2 228.663 502.387 229.223 502.76C229.783 503.12 230.223 503.593 230.543 504.18C230.863 504.753 231.023 505.353 231.023 505.98V512H228.823ZM222.243 512V502.4H224.443V512H222.243ZM233.278 512V502.4H235.478V512H233.278ZM234.378 500.64C234.005 500.64 233.692 500.513 233.438 500.26C233.198 500.007 233.078 499.693 233.078 499.32C233.078 498.947 233.198 498.633 233.438 498.38C233.692 498.127 234.005 498 234.378 498C234.765 498 235.078 498.127 235.318 498.38C235.558 498.633 235.678 498.947 235.678 499.32C235.678 499.693 235.558 500.007 235.318 500.26C235.078 500.513 234.765 500.64 234.378 500.64ZM242.366 512.2C241.419 512.2 240.559 511.98 239.786 511.54C239.026 511.1 238.426 510.5 237.986 509.74C237.546 508.98 237.326 508.133 237.326 507.2C237.326 506.253 237.546 505.407 237.986 504.66C238.426 503.9 239.026 503.3 239.786 502.86C240.559 502.42 241.419 502.2 242.366 502.2C243.113 502.2 243.806 502.347 244.446 502.64C245.099 502.92 245.653 503.327 246.106 503.86L244.666 505.32C244.386 504.987 244.046 504.74 243.646 504.58C243.259 504.407 242.833 504.32 242.366 504.32C241.819 504.32 241.333 504.447 240.906 504.7C240.493 504.94 240.166 505.273 239.926 505.7C239.699 506.127 239.586 506.627 239.586 507.2C239.586 507.76 239.699 508.26 239.926 508.7C240.166 509.127 240.493 509.467 240.906 509.72C241.333 509.96 241.819 510.08 242.366 510.08C242.833 510.08 243.259 510 243.646 509.84C244.046 509.667 244.386 509.413 244.666 509.08L246.106 510.54C245.653 511.073 245.099 511.487 244.446 511.78C243.806 512.06 243.113 512.2 242.366 512.2ZM251.517 512.2C250.65 512.2 249.863 511.98 249.157 511.54C248.463 511.1 247.91 510.507 247.497 509.76C247.097 509 246.897 508.153 246.897 507.22C246.897 506.273 247.097 505.427 247.497 504.68C247.91 503.92 248.463 503.32 249.157 502.88C249.863 502.427 250.65 502.2 251.517 502.2C252.25 502.2 252.897 502.36 253.457 502.68C254.03 502.987 254.483 503.413 254.817 503.96C255.15 504.507 255.317 505.127 255.317 505.82V508.58C255.317 509.273 255.15 509.893 254.817 510.44C254.497 510.987 254.05 511.42 253.477 511.74C252.903 512.047 252.25 512.2 251.517 512.2ZM251.877 510.12C252.69 510.12 253.343 509.847 253.837 509.3C254.343 508.753 254.597 508.053 254.597 507.2C254.597 506.627 254.483 506.12 254.257 505.68C254.03 505.24 253.71 504.9 253.297 504.66C252.897 504.407 252.423 504.28 251.877 504.28C251.343 504.28 250.87 504.407 250.457 504.66C250.057 504.9 249.737 505.24 249.497 505.68C249.27 506.12 249.157 506.627 249.157 507.2C249.157 507.773 249.27 508.28 249.497 508.72C249.737 509.16 250.057 509.507 250.457 509.76C250.87 510 251.343 510.12 251.877 510.12ZM254.457 512V509.42L254.837 507.08L254.457 504.76V502.4H256.657V512H254.457ZM260.558 512V498.4H262.758V512H260.558ZM258.258 504.4V502.4H265.058V504.4H258.258ZM266.677 512V502.4H268.877V512H266.677ZM267.777 500.64C267.404 500.64 267.09 500.513 266.837 500.26C266.597 500.007 266.477 499.693 266.477 499.32C266.477 498.947 266.597 498.633 266.837 498.38C267.09 498.127 267.404 498 267.777 498C268.164 498 268.477 498.127 268.717 498.38C268.957 498.633 269.077 498.947 269.077 499.32C269.077 499.693 268.957 500.007 268.717 500.26C268.477 500.513 268.164 500.64 267.777 500.64ZM275.744 512.2C274.811 512.2 273.964 511.98 273.204 511.54C272.444 511.087 271.838 510.48 271.384 509.72C270.944 508.96 270.724 508.113 270.724 507.18C270.724 506.247 270.944 505.407 271.384 504.66C271.838 503.913 272.444 503.32 273.204 502.88C273.964 502.427 274.811 502.2 275.744 502.2C276.691 502.2 277.544 502.42 278.304 502.86C279.064 503.3 279.664 503.9 280.104 504.66C280.558 505.407 280.784 506.247 280.784 507.18C280.784 508.113 280.558 508.96 280.104 509.72C279.664 510.48 279.064 511.087 278.304 511.54C277.544 511.98 276.691 512.2 275.744 512.2ZM275.744 510.08C276.291 510.08 276.771 509.96 277.184 509.72C277.611 509.467 277.938 509.12 278.164 508.68C278.404 508.24 278.524 507.74 278.524 507.18C278.524 506.62 278.404 506.127 278.164 505.7C277.924 505.273 277.598 504.94 277.184 504.7C276.771 504.447 276.291 504.32 275.744 504.32C275.211 504.32 274.731 504.447 274.304 504.7C273.891 504.94 273.564 505.273 273.324 505.7C273.098 506.127 272.984 506.62 272.984 507.18C272.984 507.74 273.098 508.24 273.324 508.68C273.564 509.12 273.891 509.467 274.304 509.72C274.731 509.96 275.211 510.08 275.744 510.08ZM289.194 512V506.46C289.194 505.82 288.987 505.293 288.574 504.88C288.174 504.467 287.654 504.26 287.014 504.26C286.587 504.26 286.207 504.353 285.874 504.54C285.541 504.727 285.281 504.987 285.094 505.32C284.907 505.653 284.814 506.033 284.814 506.46L283.954 505.98C283.954 505.247 284.114 504.6 284.434 504.04C284.754 503.467 285.194 503.02 285.754 502.7C286.327 502.367 286.967 502.2 287.674 502.2C288.394 502.2 289.034 502.387 289.594 502.76C290.154 503.12 290.594 503.593 290.914 504.18C291.234 504.753 291.394 505.353 291.394 505.98V512H289.194ZM282.614 512V502.4H284.814V512H282.614ZM300.773 512.2C300.24 512.2 299.727 512.133 299.233 512C298.74 511.853 298.287 511.653 297.873 511.4C297.46 511.133 297.1 510.813 296.793 510.44L298.193 509.04C298.527 509.427 298.907 509.72 299.333 509.92C299.773 510.107 300.267 510.2 300.813 510.2C301.307 510.2 301.68 510.127 301.933 509.98C302.187 509.833 302.313 509.62 302.313 509.34C302.313 509.047 302.193 508.82 301.953 508.66C301.713 508.5 301.4 508.367 301.013 508.26C300.64 508.14 300.24 508.02 299.813 507.9C299.4 507.78 299 507.62 298.613 507.42C298.24 507.207 297.933 506.92 297.693 506.56C297.453 506.2 297.333 505.733 297.333 505.16C297.333 504.547 297.473 504.02 297.753 503.58C298.047 503.14 298.453 502.8 298.973 502.56C299.507 502.32 300.14 502.2 300.873 502.2C301.647 502.2 302.327 502.34 302.913 502.62C303.513 502.887 304.013 503.293 304.413 503.84L303.013 505.24C302.733 504.893 302.413 504.633 302.053 504.46C301.693 504.287 301.28 504.2 300.813 504.2C300.373 504.2 300.033 504.267 299.793 504.4C299.553 504.533 299.433 504.727 299.433 504.98C299.433 505.247 299.553 505.453 299.793 505.6C300.033 505.747 300.34 505.873 300.713 505.98C301.1 506.087 301.5 506.207 301.913 506.34C302.34 506.46 302.74 506.633 303.113 506.86C303.5 507.073 303.813 507.367 304.053 507.74C304.293 508.1 304.413 508.573 304.413 509.16C304.413 510.093 304.087 510.833 303.433 511.38C302.78 511.927 301.893 512.2 300.773 512.2ZM312.327 512L308.267 507.1L312.307 502.4H314.927L310.287 507.68L310.387 506.42L315.127 512H312.327ZM306.227 512V497.6H308.427V512H306.227ZM316.11 512V502.4H318.31V512H316.11ZM317.21 500.64C316.837 500.64 316.524 500.513 316.27 500.26C316.03 500.007 315.91 499.693 315.91 499.32C315.91 498.947 316.03 498.633 316.27 498.38C316.524 498.127 316.837 498 317.21 498C317.597 498 317.91 498.127 318.15 498.38C318.39 498.633 318.51 498.947 318.51 499.32C318.51 499.693 318.39 500.007 318.15 500.26C317.91 500.513 317.597 500.64 317.21 500.64ZM320.778 512V497.6H322.978V512H320.778ZM325.426 512V497.6H327.626V512H325.426ZM333.215 512.2C332.681 512.2 332.168 512.133 331.675 512C331.181 511.853 330.728 511.653 330.315 511.4C329.901 511.133 329.541 510.813 329.235 510.44L330.635 509.04C330.968 509.427 331.348 509.72 331.775 509.92C332.215 510.107 332.708 510.2 333.255 510.2C333.748 510.2 334.121 510.127 334.375 509.98C334.628 509.833 334.755 509.62 334.755 509.34C334.755 509.047 334.635 508.82 334.395 508.66C334.155 508.5 333.841 508.367 333.455 508.26C333.081 508.14 332.681 508.02 332.255 507.9C331.841 507.78 331.441 507.62 331.055 507.42C330.681 507.207 330.375 506.92 330.135 506.56C329.895 506.2 329.775 505.733 329.775 505.16C329.775 504.547 329.915 504.02 330.195 503.58C330.488 503.14 330.895 502.8 331.415 502.56C331.948 502.32 332.581 502.2 333.315 502.2C334.088 502.2 334.768 502.34 335.355 502.62C335.955 502.887 336.455 503.293 336.855 503.84L335.455 505.24C335.175 504.893 334.855 504.633 334.495 504.46C334.135 504.287 333.721 504.2 333.255 504.2C332.815 504.2 332.475 504.267 332.235 504.4C331.995 504.533 331.875 504.727 331.875 504.98C331.875 505.247 331.995 505.453 332.235 505.6C332.475 505.747 332.781 505.873 333.155 505.98C333.541 506.087 333.941 506.207 334.355 506.34C334.781 506.46 335.181 506.633 335.555 506.86C335.941 507.073 336.255 507.367 336.495 507.74C336.735 508.1 336.855 508.573 336.855 509.16C336.855 510.093 336.528 510.833 335.875 511.38C335.221 511.927 334.335 512.2 333.215 512.2ZM340.349 512.2C339.922 512.2 339.569 512.06 339.289 511.78C339.022 511.487 338.889 511.133 338.889 510.72C338.889 510.293 339.022 509.94 339.289 509.66C339.569 509.38 339.922 509.24 340.349 509.24C340.775 509.24 341.122 509.38 341.389 509.66C341.669 509.94 341.809 510.293 341.809 510.72C341.809 511.133 341.669 511.487 341.389 511.78C341.122 512.06 340.775 512.2 340.349 512.2Z" fill="#FEFEFF"/>
</g>
<defs>
<filter id="filter0_d_3_2" x="0" y="0" width="506.667" height="578" filterUnits="userSpaceOnUse" color-interpolation-filters="sRGB">
<feFlood flood-opacity="0" result="BackgroundImageFix"/>
<feColorMatrix in="SourceAlpha" type="matrix" values="0 0 0 0 0 0 0 0 0 0 0 0 0 0 0 0 0 0 127 0" result="hardAlpha"/>
<feMorphology radius="2" operator="dilate" in="SourceAlpha" result="effect1_dropShadow_3_2"/>
<feOffset dx="6" dy="6"/>
<feComposite in2="hardAlpha" operator="out"/>
<feColorMatrix type="matrix" values="0 0 0 0 0.117647 0 0 0 0 0.117647 0 0 0 0 0.117647 0 0 0 1 0"/>
<feBlend mode="normal" in2="BackgroundImageFix" result="effect1_dropShadow_3_2"/>
<feBlend mode="normal" in="SourceGraphic" in2="effect1_dropShadow_3_2" result="shape"/>
</filter>
</defs>
</svg>
