<svg width="1829" height="399" viewBox="0 0 1829 399" fill="none" xmlns="http://www.w3.org/2000/svg">
<g filter="url(#filter0_d_1_7)">
<rect width="1820" height="390" rx="12" fill="white"/>
<rect x="1" y="1" width="1818" height="388" rx="11" stroke="#262626" stroke-width="2"/>
<g clip-path="url(#clip0_1_7)">
<path d="M0 24.9957L24.9957 0H49.9914V24.9957L24.9957 49.9914H0V24.9957Z" fill="#FFBE99"/>
<path d="M49.9914 0H24.9957V24.9957H49.9914V0Z" fill="#262626"/>
<path d="M0 75.0043L24.9957 49.9914H49.9914V75.0043L24.9957 100H0V75.0043Z" fill="#FFBE99"/>
<path d="M49.9914 49.9914H24.9957V74.9871H49.9914V49.9914Z" fill="#262626"/>
<path d="M0 124.996L24.9957 100H49.9914V124.996L24.9957 149.991H0V124.996Z" fill="#FFBE99"/>
<path d="M49.9914 100H24.9957V124.996H49.9914V100Z" fill="#262626"/>
<path d="M0 174.987L24.9957 149.991H49.9914V174.987L24.9957 200H0V174.987Z" fill="#FFBE99"/>
<path d="M49.9914 149.991H24.9957V174.987H49.9914V149.991Z" fill="#262626"/>
<path d="M49.9914 24.9957L75.0043 0H100V24.9957L75.0043 49.9914H49.9914V24.9957Z" fill="#FFBE99"/>
<path d="M100 0H75.0043V24.9957H100V0Z" fill="#262626"/>
<path d="M49.9914 75.0043L75.0043 49.9914H100V75.0043L75.0043 100H49.9914V75.0043Z" fill="#FFBE99"/>
<path d="M100 49.9914H75.0043V74.9871H100V49.9914Z" fill="#262626"/>
<path d="M49.9914 124.996L75.0043 100H100V124.996L75.0043 149.991H49.9914V124.996Z" fill="#FFBE99"/>
<path d="M100 100H75.0043V124.996H100V100Z" fill="#262626"/>
<path d="M100 24.9957L124.996 0H149.991V24.9957L124.996 49.9914H100V24.9957Z" fill="#FFBE99"/>
<path d="M149.991 0H124.996V24.9957H149.991V0Z" fill="#262626"/>
<path d="M149.991 24.9957L174.987 0H200V24.9957L174.987 49.9914H149.991V24.9957Z" fill="#FFBE99"/>
<path d="M199.983 0H174.987V24.9957H199.983V0Z" fill="#262626"/>
<path d="M100 75.0043L124.996 49.9914H149.991V75.0043L124.996 100H100V75.0043Z" fill="#FFBE99"/>
<path d="M149.991 49.9914H124.996V74.9871H149.991V49.9914Z" fill="#262626"/>
</g>
</g>
<defs>
<filter id="filter0_d_1_7" x="0" y="0" width="1829" height="399" filterUnits="userSpaceOnUse" color-interpolation-filters="sRGB">
<feFlood flood-opacity="0" result="BackgroundImageFix"/>
<feColorMatrix in="SourceAlpha" type="matrix" values="0 0 0 0 0 0 0 0 0 0 0 0 0 0 0 0 0 0 127 0" result="hardAlpha"/>
<feMorphology radius="1" operator="dilate" in="SourceAlpha" result="effect1_dropShadow_1_7"/>
<feOffset dx="8" dy="8"/>
<feComposite in2="hardAlpha" operator="out"/>
<feColorMatrix type="matrix" values="0 0 0 0 0.117647 0 0 0 0 0.117647 0 0 0 0 0.117647 0 0 0 1 0"/>
<feBlend mode="normal" in2="BackgroundImageFix" result="effect1_dropShadow_1_7"/>
<feBlend mode="normal" in="SourceGraphic" in2="effect1_dropShadow_1_7" result="shape"/>
</filter>
<clipPath id="clip0_1_7">
<rect width="200" height="200" fill="white"/>
</clipPath>
</defs>
</svg>
