<svg width="78" height="78" viewBox="0 0 78 78" fill="none" xmlns="http://www.w3.org/2000/svg">
<rect x="1" y="1" width="76" height="76" rx="13" fill="#FFDECC"/>
<rect x="1" y="1" width="76" height="76" rx="13" stroke="#262626" stroke-width="2"/>
<path d="M37.9375 29.5607C37.9375 29.0575 37.6739 28.6027 37.3691 28.2024C37.0562 27.7915 36.875 27.304 36.875 26.7812C36.875 25.3142 38.3021 24.125 40.0625 24.125C41.8229 24.125 43.25 25.3142 43.25 26.7813C43.25 27.304 43.0688 27.7915 42.7559 28.2024C42.4511 28.6027 42.1875 29.0575 42.1875 29.5607C42.1875 30.0315 42.5809 30.4073 43.0509 30.3793C45.7576 30.2178 48.4206 29.8955 51.0306 29.4219C51.3178 29.3698 51.6138 29.4381 51.8491 29.6109C52.0844 29.7837 52.2383 30.0457 52.2745 30.3353C52.5919 32.8704 52.7718 35.4479 52.8067 38.06C52.8136 38.579 52.3922 38.9999 51.8732 39C51.37 39 50.9152 38.7364 50.5149 38.4316C50.104 38.1187 49.6165 37.9375 49.0937 37.9375C47.6267 37.9375 46.4375 39.3646 46.4375 41.125C46.4375 42.8854 47.6267 44.3125 49.0937 44.3125C49.6165 44.3125 50.104 44.1313 50.5149 43.8184C50.9152 43.5136 51.37 43.25 51.8732 43.25C52.3129 43.25 52.6621 43.6207 52.6304 44.0593C52.4622 46.3806 52.1794 48.6703 51.7873 50.9228C51.7104 51.3646 51.3645 51.7105 50.9227 51.7874C48.3456 52.2359 45.7198 52.5415 43.0538 52.6958C42.582 52.7231 42.1875 52.3457 42.1875 51.8732C42.1875 51.37 42.4511 50.9152 42.7559 50.5149C43.0688 50.104 43.25 49.6165 43.25 49.0938C43.25 47.6267 41.8229 46.4375 40.0625 46.4375C38.3021 46.4375 36.875 47.6267 36.875 49.0938C36.875 49.6165 37.0562 50.104 37.3691 50.5149C37.6739 50.9152 37.9375 51.37 37.9375 51.8732C37.9375 52.3854 37.5181 52.7991 37.0061 52.7846C34.7543 52.7207 32.5292 52.549 30.3359 52.2744C30.0462 52.2381 29.7842 52.0843 29.6114 51.849C29.4386 51.6137 29.3703 51.3176 29.4224 51.0304C29.8373 48.7439 30.1361 46.4168 30.3124 44.0552C30.345 43.6191 29.998 43.25 29.5607 43.25C29.0575 43.25 28.6027 43.5136 28.2024 43.8184C27.7915 44.1313 27.304 44.3125 26.7812 44.3125C25.3142 44.3125 24.125 42.8854 24.125 41.125C24.125 39.3646 25.3142 37.9375 26.7812 37.9375C27.304 37.9375 27.7915 38.1187 28.2024 38.4316C28.6027 38.7364 29.0575 39 29.5607 39C30.0797 39 30.5011 38.5792 30.494 38.0603C30.4622 35.7536 30.3139 33.4754 30.0546 31.2314C30.0173 30.9091 30.1294 30.5875 30.3588 30.3581C30.5881 30.1288 30.9098 30.0167 31.232 30.054C33.1336 30.2737 35.0597 30.4138 37.0068 30.4707C37.5184 30.4857 37.9375 30.0724 37.9375 29.5607Z" fill="#262626"/>
</svg>
