<svg width="78" height="78" viewBox="0 0 78 78" fill="none" xmlns="http://www.w3.org/2000/svg">
<rect x="1" y="1" width="76" height="76" rx="13" fill="#FFDECC"/>
<rect x="1" y="1" width="76" height="76" rx="13" stroke="#262626" stroke-width="2"/>
<path fill-rule="evenodd" clip-rule="evenodd" d="M37.2835 26.5485C37.9187 25.0214 40.082 25.0214 40.7171 26.5485L43.6666 33.6399L51.3224 34.2536C52.971 34.3858 53.6395 36.4432 52.3835 37.5192L46.5506 42.5157L48.3326 49.9864C48.7164 51.5952 46.9662 52.8668 45.5548 52.0047L39.0003 48.0012L32.4459 52.0047C31.0345 52.8668 29.2843 51.5952 29.6681 49.9864L31.4501 42.5157L25.6172 37.5192C24.3611 36.4432 25.0296 34.3858 26.6783 34.2536L34.3341 33.6399L37.2835 26.5485Z" fill="#262626"/>
</svg>
