<svg width="78" height="78" viewBox="0 0 78 78" fill="none" xmlns="http://www.w3.org/2000/svg">
<rect x="1" y="1" width="76" height="76" rx="13" fill="#FFDECC"/>
<rect x="1" y="1" width="76" height="76" rx="13" stroke="#262626" stroke-width="2"/>
<path d="M48.0312 25.1875C46.5642 25.1875 45.375 26.3767 45.375 27.8438V50.1562C45.375 51.6233 46.5642 52.8125 48.0312 52.8125H49.0938C50.5608 52.8125 51.75 51.6233 51.75 50.1562V27.8438C51.75 26.3767 50.5608 25.1875 49.0938 25.1875H48.0312Z" fill="#262626"/>
<path d="M35.8125 34.2188C35.8125 32.7517 37.0017 31.5625 38.4688 31.5625H39.5312C40.9983 31.5625 42.1875 32.7517 42.1875 34.2188V50.1562C42.1875 51.6233 40.9983 52.8125 39.5312 52.8125H38.4688C37.0017 52.8125 35.8125 51.6233 35.8125 50.1562V34.2188Z" fill="#262626"/>
<path d="M26.25 40.5938C26.25 39.1267 27.4392 37.9375 28.9062 37.9375H29.9688C31.4358 37.9375 32.625 39.1267 32.625 40.5938V50.1562C32.625 51.6233 31.4358 52.8125 29.9688 52.8125H28.9062C27.4392 52.8125 26.25 51.6233 26.25 50.1562V40.5938Z" fill="#262626"/>
</svg>
