<svg width="78" height="78" viewBox="0 0 78 78" fill="none" xmlns="http://www.w3.org/2000/svg">
<rect x="1" y="1" width="76" height="76" rx="13" fill="#FFDECC"/>
<rect x="1" y="1" width="76" height="76" rx="13" stroke="#262626" stroke-width="2"/>
<path d="M39 25.1875C39.5868 25.1875 40.0625 25.6632 40.0625 26.25V29.4375C40.0625 30.0243 39.5868 30.5 39 30.5C38.4132 30.5 37.9375 30.0243 37.9375 29.4375V26.25C37.9375 25.6632 38.4132 25.1875 39 25.1875Z" fill="#262626"/>
<path d="M32.625 39C32.625 35.4792 35.4792 32.625 39 32.625C42.5208 32.625 45.375 35.4792 45.375 39C45.375 42.5208 42.5208 45.375 39 45.375C35.4792 45.375 32.625 42.5208 32.625 39Z" fill="#262626"/>
<path d="M48.767 30.7356C49.1819 30.3207 49.1819 29.648 48.767 29.233C48.3521 28.8181 47.6793 28.8181 47.2644 29.233L45.0105 31.4869C44.5955 31.9019 44.5955 32.5746 45.0105 32.9895C45.4254 33.4045 46.0982 33.4045 46.5131 32.9895L48.767 30.7356Z" fill="#262626"/>
<path d="M52.8125 39C52.8125 39.5868 52.3368 40.0625 51.75 40.0625H48.5625C47.9757 40.0625 47.5 39.5868 47.5 39C47.5 38.4132 47.9757 37.9375 48.5625 37.9375H51.75C52.3368 37.9375 52.8125 38.4132 52.8125 39Z" fill="#262626"/>
<path d="M47.2642 48.7669C47.6792 49.1818 48.3519 49.1818 48.7668 48.7669C49.1818 48.3519 49.1818 47.6792 48.7668 47.2643L46.5129 45.0104C46.098 44.5954 45.4253 44.5954 45.0103 45.0104C44.5954 45.4253 44.5954 46.098 45.0103 46.513L47.2642 48.7669Z" fill="#262626"/>
<path d="M39 47.5C39.5868 47.5 40.0625 47.9757 40.0625 48.5625V51.75C40.0625 52.3368 39.5868 52.8125 39 52.8125C38.4132 52.8125 37.9375 52.3368 37.9375 51.75V48.5625C37.9375 47.9757 38.4132 47.5 39 47.5Z" fill="#262626"/>
<path d="M32.9898 46.513C33.4047 46.098 33.4047 45.4253 32.9898 45.0104C32.5749 44.5954 31.9021 44.5954 31.4872 45.0104L29.2333 47.2643C28.8184 47.6792 28.8184 48.3519 29.2333 48.7669C29.6482 49.1818 30.321 49.1818 30.7359 48.7669L32.9898 46.513Z" fill="#262626"/>
<path d="M30.5 39C30.5 39.5868 30.0243 40.0625 29.4375 40.0625H26.25C25.6632 40.0625 25.1875 39.5868 25.1875 39C25.1875 38.4132 25.6632 37.9375 26.25 37.9375H29.4375C30.0243 37.9375 30.5 38.4132 30.5 39Z" fill="#262626"/>
<path d="M31.487 32.9895C31.902 33.4045 32.5747 33.4045 32.9896 32.9895C33.4046 32.5746 33.4046 31.9019 32.9896 31.4869L30.7357 29.233C30.3208 28.8181 29.6481 28.8181 29.2331 29.233C28.8182 29.648 28.8182 30.3207 29.2331 30.7356L31.487 32.9895Z" fill="#262626"/>
</svg>
